<?xml version="1.0" standalone="no"?>
<!DOCTYPE svg PUBLIC "-//W3C//DTD SVG 20010904//EN"
 "http://www.w3.org/TR/2001/REC-SVG-20010904/DTD/svg10.dtd">
<svg version="1.0" xmlns="http://www.w3.org/2000/svg"
 width="250.000000pt" height="250.000000pt" viewBox="0 0 250.000000 250.000000"
 preserveAspectRatio="xMidYMid meet">
<metadata>
Created by potrace 1.11, written by Peter Selinger 2001-2013
</metadata>
<g transform="translate(0.000000,250.000000) scale(0.100000,-0.100000)"
fill="#000000" stroke="none">
<path d="M341 2113 c-229 -248 -341 -532 -341 -863 0 -333 115 -623 345 -866
l74 -79 1 943 c0 518 -2 942 -4 942 -2 0 -36 -35 -75 -77z"/>
<path d="M2081 1250 l0 -945 74 79 c230 243 345 533 345 866 0 333 -115 623
-345 866 l-74 79 0 -945z"/>
<path d="M1187 1819 c-32 -60 -64 -112 -72 -115 -7 -3 -36 6 -65 21 -29 14
-54 25 -56 23 -2 -3 10 -74 26 -159 34 -173 36 -209 16 -209 -7 0 -48 38 -91
85 -42 47 -80 83 -85 80 -4 -2 -10 -19 -14 -36 -11 -56 -17 -58 -114 -38 -48
10 -92 18 -99 19 -8 0 -2 -36 18 -107 16 -60 29 -111 29 -114 0 -3 -18 -14
-40 -24 -22 -10 -40 -21 -40 -25 0 -4 72 -66 160 -136 103 -84 160 -136 160
-148 0 -10 -5 -36 -12 -57 -6 -22 -9 -42 -6 -45 4 -3 72 4 153 16 81 12 154
19 162 16 12 -5 14 -31 7 -176 l-7 -170 32 0 32 0 -7 170 c-6 148 -5 170 9
175 8 4 81 -3 162 -15 81 -12 149 -19 153 -16 3 3 0 23 -6 45 -7 21 -12 47
-12 57 0 12 57 64 160 148 88 70 160 132 160 136 0 4 -18 15 -40 25 -22 10
-40 21 -40 24 0 3 13 54 29 114 20 71 26 107 18 107 -7 -1 -51 -9 -99 -19 -97
-20 -103 -18 -114 38 -4 17 -10 34 -14 36 -5 3 -43 -33 -85 -80 -43 -47 -84
-85 -91 -85 -20 0 -18 28 16 206 16 87 28 160 26 162 -2 2 -27 -9 -56 -23 -29
-15 -58 -24 -65 -21 -8 3 -40 55 -72 115 -32 61 -60 111 -63 111 -3 0 -31 -50
-63 -111z"/>
</g>
</svg>
